<svg width="20" height="21" viewBox="0 0 20 21" fill="none" xmlns="http://www.w3.org/2000/svg">
<g clip-path="url(#clip0_19958_4531)">
<path d="M18.75 15.5H16.25V13H15V15.5H12.5V16.75H15V19.25H16.25V16.75H18.75V15.5Z" fill="#4D5358"/>
<path d="M10 18H5V2.99997H10V6.74997C10.001 7.0812 10.133 7.39858 10.3672 7.6328C10.6014 7.86701 10.9188 7.99901 11.25 7.99997H15V10.5H16.25V6.74997C16.2522 6.66783 16.2366 6.58617 16.2043 6.51064C16.1719 6.43511 16.1235 6.3675 16.0625 6.31247L11.6875 1.93747C11.6325 1.87643 11.5649 1.82805 11.4893 1.79568C11.4138 1.7633 11.3321 1.74771 11.25 1.74997H5C4.66877 1.75093 4.35139 1.88293 4.11717 2.11714C3.88296 2.35136 3.75096 2.66874 3.75 2.99997V18C3.75096 18.3312 3.88296 18.6486 4.11717 18.8828C4.35139 19.117 4.66877 19.249 5 19.25H10V18ZM11.25 3.24997L14.75 6.74997H11.25V3.24997Z" fill="#4D5358"/>
</g>
<defs>
<clipPath id="clip0_19958_4531">
<rect width="20" height="20" fill="white" transform="translate(0 0.5)"/>
</clipPath>
</defs>
</svg>
