<svg width="25" height="24" viewBox="0 0 25 24" fill="none" xmlns="http://www.w3.org/2000/svg">
<g id="document--pdf 1" clip-path="url(#clip0_16426_22701)">
<path id="Vector" d="M22.6646 13.5V12H18.1438V19.5H19.6507V16.5H21.9111V15H19.6507V13.5H22.6646Z" fill="#697077"/>
<path id="Vector_2" d="M14.3764 19.5H11.3625V12H14.3764C14.9757 12.0007 15.5503 12.2379 15.974 12.6598C16.3978 13.0816 16.6361 13.6535 16.6368 14.25V17.25C16.6361 17.8466 16.3978 18.4185 15.974 18.8403C15.5503 19.2621 14.9757 19.4994 14.3764 19.5ZM12.8695 18H14.3764C14.5762 17.9998 14.7677 17.9207 14.9089 17.7801C15.0502 17.6395 15.1297 17.4489 15.1299 17.25V14.25C15.1297 14.0512 15.0502 13.8605 14.9089 13.7199C14.7677 13.5793 14.5762 13.5002 14.3764 13.5H12.8695V18Z" fill="#697077"/>
<path id="Vector_3" d="M8.34838 12H4.58105V19.5H6.08798V17.25H8.34838C8.74787 17.2495 9.13085 17.0913 9.41334 16.8101C9.69583 16.5289 9.85477 16.1477 9.8553 15.75V13.5C9.85485 13.1023 9.69593 12.7211 9.41343 12.4399C9.13092 12.1587 8.7479 12.0005 8.34838 12ZM6.08798 15.75V13.5H8.34838L8.34913 15.75H6.08798Z" fill="#697077"/>
<path id="Vector_4" d="M16.6367 10.5V7.50003C16.6394 7.40145 16.6206 7.30347 16.5815 7.21283C16.5425 7.1222 16.4842 7.04106 16.4106 6.97503L11.1364 1.72503C11.0701 1.65178 10.9885 1.59372 10.8975 1.55488C10.8064 1.51603 10.708 1.49732 10.609 1.50003H3.07431C2.67501 1.5012 2.2924 1.65961 2.01005 1.94066C1.7277 2.22171 1.56856 2.60256 1.56738 3.00003V21C1.56738 21.3979 1.72615 21.7794 2.00875 22.0607C2.29136 22.342 2.67465 22.5 3.07431 22.5H15.1297V21H3.07431V3.00003H9.10203V7.50003C9.1032 7.89749 9.26234 8.27835 9.54469 8.5594C9.82704 8.84045 10.2097 8.99886 10.609 9.00003H15.1297V10.5H16.6367ZM10.609 7.50003V3.30003L14.8284 7.50003H10.609Z" fill="#697077"/>
</g>
<defs>
<clipPath id="clip0_16426_22701">
<rect width="24.1109" height="24" fill="white" transform="translate(0.0605469 3.05176e-05)"/>
</clipPath>
</defs>
</svg>
