<svg width="20" height="21" viewBox="0 0 20 21" fill="none" xmlns="http://www.w3.org/2000/svg">
<g clip-path="url(#clip0_19958_4048)">
<path d="M8.75 8H7.5V15.5H8.75V8Z" fill="#4D5358"/>
<path d="M12.5 8H11.25V15.5H12.5V8Z" fill="#4D5358"/>
<path d="M2.5 4.25V5.5H3.75V18C3.75 18.3315 3.8817 18.6495 4.11612 18.8839C4.35054 19.1183 4.66848 19.25 5 19.25H15C15.3315 19.25 15.6495 19.1183 15.8839 18.8839C16.1183 18.6495 16.25 18.3315 16.25 18V5.5H17.5V4.25H2.5ZM5 18V5.5H15V18H5Z" fill="#4D5358"/>
<path d="M12.5 1.75H7.5V3H12.5V1.75Z" fill="#4D5358"/>
</g>
<defs>
<clipPath id="clip0_19958_4048">
<rect width="20" height="20" fill="white" transform="translate(0 0.5)"/>
</clipPath>
</defs>
</svg>
